<svg width="1295" height="351" viewBox="0 0 1295 351" fill="none" xmlns="http://www.w3.org/2000/svg">
<path d="M1217.17 271.802C1193.64 271.802 1175.28 266.39 1162.1 255.565C1148.92 244.504 1142.33 230.267 1142.33 212.853C1142.33 192.379 1150.92 177.554 1168.1 168.376C1185.52 159.198 1210.93 156.021 1244.35 158.845C1242.7 148.02 1239.29 140.725 1234.11 136.96C1228.93 132.959 1222.7 130.959 1215.4 130.959C1209.52 130.959 1204.58 131.312 1200.58 132.018C1196.81 132.489 1193.28 133.077 1189.99 133.783C1186.69 134.489 1182.69 134.842 1177.99 134.842C1171.63 134.842 1166.57 133.783 1162.81 131.665C1159.04 129.312 1157.16 124.723 1157.16 117.899C1157.16 108.25 1161.28 101.19 1169.51 96.7191C1177.99 92.0126 1191.28 89.6594 1209.4 89.6594C1238.11 89.6594 1259.41 97.8958 1273.29 114.369C1287.18 130.606 1294.12 152.374 1294.12 179.672C1294.12 211.205 1288.35 234.503 1276.82 249.564C1265.53 264.389 1245.64 271.802 1217.17 271.802ZM1193.17 212.853C1193.17 226.266 1202.23 232.973 1220.35 232.973C1226.23 232.973 1230.82 231.914 1234.11 229.796C1237.41 227.678 1239.76 223.442 1241.17 217.089C1242.82 210.735 1244 201.204 1244.7 188.496C1243.53 189.673 1242 190.497 1240.11 190.967C1238.23 191.438 1236.35 191.673 1234.46 191.673C1218.93 191.673 1208.11 193.203 1201.99 196.262C1196.11 199.086 1193.17 204.616 1193.17 212.853Z" fill="#00456E"/>
<path d="M1129.53 248.152C1129.53 263.919 1121.29 271.802 1104.82 271.802C1096.82 271.802 1090.46 269.802 1085.75 265.801C1081.05 261.801 1078.7 255.917 1078.7 248.152V27.5332C1078.7 19.0614 1080.58 12.3546 1084.34 7.41277C1088.34 2.47092 1094.93 0 1104.11 0C1113.29 0 1119.76 2.47092 1123.52 7.41277C1127.53 12.3546 1129.53 19.0614 1129.53 27.5332V248.152Z" fill="#00456E"/>
<path d="M1003.55 271.802C980.02 271.802 961.547 267.919 948.133 260.153C934.955 252.388 925.542 241.68 919.894 228.031C914.481 214.382 911.775 198.733 911.775 181.084C911.775 148.609 918.952 125.311 933.307 111.192C947.662 96.8368 966.959 89.6594 991.198 89.6594C1005.79 89.6594 1018.73 92.1303 1030.03 97.0721C1041.32 102.014 1050.15 109.074 1056.5 118.252C1062.85 127.194 1066.03 138.137 1066.03 151.08C1066.03 188.732 1039.2 207.558 985.55 207.558H965.076C966.959 214.853 970.018 220.619 974.254 224.854C978.725 228.855 986.491 230.855 997.551 230.855C1003.67 230.855 1008.61 230.502 1012.38 229.796C1016.14 229.09 1019.67 228.384 1022.97 227.678C1026.5 226.972 1030.5 226.619 1034.97 226.619C1041.32 226.619 1046.38 227.796 1050.15 230.149C1053.91 232.267 1055.79 236.738 1055.79 243.563C1055.79 253.211 1051.56 260.389 1043.09 265.095C1034.85 269.566 1021.67 271.802 1003.55 271.802ZM962.605 181.437C964.488 178.848 966.606 177.201 968.959 176.495C971.312 175.554 974.96 175.083 979.902 175.083C993.786 175.083 1003.32 173.789 1008.49 171.2C1013.91 168.376 1016.61 163.434 1016.61 156.374C1016.61 147.432 1014.14 140.608 1009.2 135.901C1004.26 130.959 998.022 128.488 990.492 128.488C981.785 128.488 974.96 132.136 970.018 139.431C965.076 146.726 962.605 160.728 962.605 181.437Z" fill="#00456E"/>
<path d="M723.343 271.802C713.459 271.802 705.693 268.978 700.045 263.33C694.398 257.682 689.22 248.152 684.514 234.738L649.215 127.782C647.332 121.428 646.391 116.839 646.391 114.015C646.391 107.191 648.862 101.308 653.804 96.366C658.981 91.1888 665.335 88.6002 672.865 88.6002C678.748 88.6002 683.69 90.0122 687.691 92.8361C691.927 95.66 694.751 99.5429 696.162 104.485L729.697 216.029C738.874 201.204 745.346 187.555 749.111 175.083C753.112 162.61 755.112 149.079 755.112 134.489L754.406 110.133C754.406 104.014 756.877 98.9546 761.819 94.954C766.76 90.7182 772.879 88.6002 780.174 88.6002C784.41 88.6002 788.175 90.1299 791.47 93.1891C794.764 96.2483 797.941 101.543 801 109.074C803.118 114.251 805.472 120.958 808.06 129.194C810.884 137.43 814.296 148.491 818.297 162.375C822.533 176.024 827.71 193.909 833.828 216.029C842.065 206.852 848.536 195.556 853.243 182.143C857.949 168.494 859.714 152.609 858.538 134.489L857.126 110.133C856.89 104.014 859.361 98.9546 864.539 94.954C869.951 90.7182 876.423 88.6002 883.953 88.6002C898.073 88.6002 906.191 95.307 908.309 108.721C908.78 111.78 909.133 115.31 909.368 119.31C909.604 123.311 909.721 127.311 909.721 131.312C909.721 148.491 907.015 165.787 901.602 183.201C896.425 200.38 889.13 216.265 879.717 230.855C869.833 246.151 861.244 256.859 853.949 262.977C846.889 268.86 839.123 271.802 830.652 271.802C825.004 271.802 819.238 268.625 813.355 262.271C807.707 255.682 802.412 246.74 797.471 235.444C792.529 224.148 788.528 211.441 785.469 197.321C783.116 204.616 779.35 212.617 774.173 221.324C769.231 229.796 763.583 237.915 757.23 245.681C750.876 253.446 744.64 259.8 738.521 264.742C732.638 269.449 727.578 271.802 723.343 271.802Z" fill="#00456E"/>
<path d="M515.807 271.802C506.629 271.802 500.04 269.331 496.04 264.389C492.275 259.447 490.392 252.741 490.392 244.269V27.5332C490.392 19.0614 492.275 12.3546 496.04 7.41277C500.04 2.47092 506.629 0 515.807 0C524.985 0 531.456 2.47092 535.222 7.41277C539.222 12.3546 541.222 19.0614 541.222 27.5332V158.845C553.695 151.315 564.755 142.843 574.403 133.43C584.052 123.782 590.641 114.604 594.171 105.897C597.465 97.8958 602.172 92.4833 608.29 89.6594C614.409 86.8355 621.116 87.1884 628.411 90.7183C638.53 95.6602 643.237 103.191 642.531 113.31C642.295 121.781 638.412 131.312 630.882 141.902C623.587 152.256 614.527 161.199 603.702 168.729C617.351 173.436 628.293 182.025 636.53 194.497C645.001 206.734 649.237 224.501 649.237 247.799C649.237 263.801 640.883 271.802 624.175 271.802C606.996 271.802 598.407 263.801 598.407 247.799C598.407 230.62 595.701 218.03 590.288 210.029C584.875 202.028 577.698 198.027 568.756 198.027C560.519 198.027 553.812 201.086 548.635 207.205C543.693 213.323 541.222 223.913 541.222 238.974C541.222 252.623 539.222 261.565 535.222 265.801C531.221 269.802 524.75 271.802 515.807 271.802Z" fill="#00456E"/>
<path d="M405.758 271.802C361.516 271.802 339.396 262.036 339.396 242.504C339.396 236.385 341.043 231.561 344.337 228.031C347.632 224.501 351.986 222.736 357.398 222.736C359.751 222.736 361.987 223.089 364.105 223.795C366.458 224.266 370.929 225.56 377.518 227.678C380.342 228.619 384.108 229.561 388.814 230.502C393.521 231.443 398.11 231.914 402.581 231.914C411.052 231.914 417.053 230.855 420.583 228.737C424.113 226.619 425.878 223.089 425.878 218.147C425.878 214.147 424.937 211.088 423.054 208.97C421.171 206.616 417.171 204.381 411.052 202.263C404.934 200.145 395.403 197.203 382.46 193.438C370.694 190.144 361.163 184.26 353.868 175.789C346.808 167.082 343.278 156.374 343.278 143.667C343.278 125.782 349.75 112.133 362.693 102.72C375.636 93.3067 393.403 88.6002 415.994 88.6002C432.938 88.6002 446.234 90.9535 455.882 95.66C465.531 100.367 470.355 107.191 470.355 116.133C470.355 121.781 468.707 126.488 465.413 130.253C462.118 134.018 457.647 135.901 451.999 135.901C449.646 135.901 446.822 135.548 443.528 134.842C440.468 134.136 436.703 133.195 432.232 132.018C428.937 130.841 425.407 129.9 421.642 129.194C418.112 128.488 414.347 128.135 410.346 128.135C399.051 128.135 393.403 132.136 393.403 140.137C393.403 144.843 395.639 148.844 400.11 152.138C404.581 155.198 413.17 158.61 425.878 162.375C443.292 167.552 456.117 174.494 464.354 183.201C472.59 191.673 476.709 202.969 476.709 217.088C476.709 233.561 470.355 246.857 457.647 256.976C445.175 266.86 427.878 271.802 405.758 271.802Z" fill="#00456E"/>
<path d="M193.865 350.166C176.686 350.166 168.096 340.988 168.096 322.633V183.555C168.096 151.55 175.156 127.665 189.276 111.898C203.395 96.1309 223.163 88.2475 248.578 88.2475C274.464 88.2475 294.82 96.4839 309.645 112.957C324.706 129.43 332.237 153.551 332.237 185.32C332.237 206.499 329.177 223.443 323.059 236.15C316.94 248.622 308.469 257.682 297.644 263.33C286.819 268.978 274.346 271.802 260.227 271.802C247.99 271.802 237.871 270.037 229.87 266.507C222.104 262.977 215.985 257.565 211.514 250.27C213.161 254.976 214.338 259.565 215.044 264.036C215.985 268.508 216.574 273.685 216.809 279.568C217.28 285.451 217.515 292.982 217.515 302.159V322.633C217.515 340.988 209.631 350.166 193.865 350.166ZM251.049 230.502C260.933 230.502 268.581 227.09 273.993 220.266C279.641 213.206 282.465 200.028 282.465 180.731C282.465 161.434 279.641 148.373 273.993 141.549C268.581 134.489 260.933 130.959 251.049 130.959C241.165 130.959 233.399 134.489 227.752 141.549C222.339 148.373 219.633 161.434 219.633 180.731C219.633 200.028 222.339 213.206 227.752 220.266C233.399 227.09 241.165 230.502 251.049 230.502Z" fill="#128EE8"/>
<path d="M171.077 96.0746C185.274 96.0746 190.006 103.186 190.006 112.074V177.255C190.006 235.326 146.231 260.806 132.626 265.547C119.227 270.215 108.123 272.585 95.3592 272.656L95.0632 272.657L94.7672 272.656C82.003 272.585 70.8991 270.215 57.5004 265.547C43.8949 260.806 0.120163 235.326 0.120117 177.255V112.074C0.120117 103.186 4.85244 96.0746 19.0495 96.0746C39.7536 96.0747 56.9084 112.667 56.9084 128.073V177.255C56.9084 199.665 74.4861 216.793 95.0632 216.955C115.64 216.793 133.218 199.665 133.218 177.255V128.073C133.218 112.667 150.373 96.0747 171.077 96.0746Z" fill="#128EE8"/>
<path d="M94.4735 21.9099C114.666 21.9099 131.035 37.9852 131.035 57.815C131.035 77.6449 114.666 93.7201 94.4735 93.7201C74.2809 93.7201 57.9116 77.6449 57.9116 57.815C57.9116 37.9852 74.2809 21.9099 94.4735 21.9099Z" fill="#128EE8"/>
</svg>
